<svg xmlns="http://www.w3.org/2000/svg" viewBox="0 0 20.05 20.05"><defs><style>.cls-1{fill:#f4783d;}</style></defs><title>icon_phone</title><g id="Layer_2" data-name="Layer 2"><g id="Layer_1-2" data-name="Layer 1"><path class="cls-1" d="M10,0a10,10,0,1,0,10,10A10,10,0,0,0,10,0Zm4.06,14.16A2.14,2.14,0,0,1,13,15.51a1.84,1.84,0,0,1-.77.17,2.51,2.51,0,0,1-.9-.19,12.25,12.25,0,0,1-4-2.6h0a12,12,0,0,1-2.6-4,2.07,2.07,0,0,1,0-1.67A2.23,2.23,0,0,1,6,6.09a1.24,1.24,0,0,1,.83,0A5,5,0,0,1,8.73,8.66a1.22,1.22,0,0,1-.65,1.08.4.4,0,1,1-.45-.66c.26-.18.3-.26.29-.37A5.12,5.12,0,0,0,6.56,6.85a.42.42,0,0,0-.29,0,1.36,1.36,0,0,0-.87.69,1.28,1.28,0,0,0,0,1,11.36,11.36,0,0,0,2.43,3.73h0a11.31,11.31,0,0,0,3.73,2.43,1.31,1.31,0,0,0,1,0,1.36,1.36,0,0,0,.69-.87.39.39,0,0,0,0-.3,5.15,5.15,0,0,0-1.86-1.36c-.1,0-.19,0-.36.3a.41.41,0,0,1-.67-.46,1.23,1.23,0,0,1,1.08-.64,4.91,4.91,0,0,1,2.57,1.88A1.19,1.19,0,0,1,14.08,14.16Zm-4-7.11a.4.4,0,0,1,.4-.4,2.75,2.75,0,0,1,2.75,2.74.41.41,0,1,1-.81,0,1.94,1.94,0,0,0-1.94-1.93A.4.4,0,0,1,10.06,7.05ZM15.14,9.8a.4.4,0,0,1-.4-.41,4.27,4.27,0,0,0-4.28-4.27.41.41,0,0,1,0-.81,5.09,5.09,0,0,1,5.09,5.08A.41.41,0,0,1,15.14,9.8Z"/></g></g></svg>