<svg xmlns="http://www.w3.org/2000/svg" viewBox="0 0 27.24 27.24"><defs><style>.cls-1{fill:#f4783d;}</style></defs><title>icon_logout</title><g id="Layer_2" data-name="Layer 2"><g id="Layer_1-2" data-name="Layer 1"><path class="cls-1" d="M11.63,12.77H.85a.85.85,0,0,1,0-1.7H11.63a.85.85,0,1,1,0,1.7Z"/><path class="cls-1" d="M7.38,17a.86.86,0,0,1-.6-.25.85.85,0,0,1,0-1.21l3.65-3.65L6.78,8.26a.83.83,0,0,1,0-1.2.85.85,0,0,1,1.2,0l4.26,4.26a.85.85,0,0,1,0,1.2L8,16.78a.87.87,0,0,1-.6.25Z"/><path class="cls-1" d="M18.16,27.24A2.27,2.27,0,0,1,15.89,25V4.54a2.29,2.29,0,0,1,1.54-2.16L24.25.11a2.29,2.29,0,0,1,3,2.16V22.7a2.28,2.28,0,0,1-1.53,2.16l-6.83,2.27a2.21,2.21,0,0,1-.72.11ZM25,1.7a.69.69,0,0,0-.2,0L18,4a.58.58,0,0,0-.39.54V25a.6.6,0,0,0,.77.54l6.8-2.26a.6.6,0,0,0,.38-.55V2.27A.57.57,0,0,0,25,1.7Z"/><path class="cls-1" d="M9.93,5.68a.86.86,0,0,1-.85-.86V3.12A3.12,3.12,0,0,1,12.2,0H25a.85.85,0,1,1,0,1.7H12.2a1.43,1.43,0,0,0-1.42,1.42v1.7a.86.86,0,0,1-.85.86Z"/><path class="cls-1" d="M16.74,23.84H12.2a3.12,3.12,0,0,1-3.12-3.12V19a.85.85,0,0,1,1.7,0v1.71a1.42,1.42,0,0,0,1.42,1.41h4.54a.86.86,0,0,1,.85.86.85.85,0,0,1-.85.85Z"/></g></g></svg>