<svg xmlns="http://www.w3.org/2000/svg" viewBox="0 0 42.4 42.4"><defs><style>.cls-1{fill:#fff;}.cls-2{fill:#f15a29;}</style></defs><title>icon_camera</title><g id="Layer_2" data-name="Layer 2"><g id="Layer_1-2" data-name="Layer 1"><circle class="cls-1" cx="21.2" cy="21.2" r="21.2"/><path class="cls-2" d="M26.9,21.2a5.7,5.7,0,1,0-5.7,5.7A5.8,5.8,0,0,0,26.9,21.2Zm-5.7,4.4a4.4,4.4,0,1,1,4.4-4.4A4.4,4.4,0,0,1,21.2,25.6ZM17.8,10.9a.7.7,0,0,1,.7.6.7.7,0,0,1-.7.7H13.6a1.4,1.4,0,0,0-1.4,1.4v4.2a.7.7,0,0,1-.7.7.7.7,0,0,1-.6-.7V13.6a2.7,2.7,0,0,1,2.7-2.7ZM31.5,24.6v4.2a2.7,2.7,0,0,1-2.7,2.7H24.6a.7.7,0,0,1-.7-.6.7.7,0,0,1,.7-.7h4.2a1.4,1.4,0,0,0,1.4-1.4V24.6a.7.7,0,0,1,.7-.7A.7.7,0,0,1,31.5,24.6Zm-20.6,0a.7.7,0,0,1,.6-.7.7.7,0,0,1,.7.7v4.2a1.4,1.4,0,0,0,1.4,1.4h4.2a.7.7,0,0,1,.7.7.7.7,0,0,1-.7.6H13.6a2.7,2.7,0,0,1-2.7-2.7Zm20.6-11v4.2a.7.7,0,0,1-.6.7.7.7,0,0,1-.7-.7V13.6a1.4,1.4,0,0,0-1.4-1.4H24.6a.7.7,0,0,1-.7-.7.7.7,0,0,1,.7-.6h4.2A2.7,2.7,0,0,1,31.5,13.6Z"/></g></g></svg>