<svg xmlns="http://www.w3.org/2000/svg" viewBox="0 0 20.05 20.05"><defs><style>.cls-1{fill:#f4783d;}</style></defs><title>icon_user</title><g id="Layer_2" data-name="Layer 2"><g id="Layer_1-2" data-name="Layer 1"><circle class="cls-1" cx="10.02" cy="7.29" r="2.73" transform="translate(-1.04 1.7) rotate(-9.22)"/><path class="cls-1" d="M10,0a10,10,0,1,0,10,10A10,10,0,0,0,10,0Zm6,16.5a.5.5,0,0,1-.5-.46A5.46,5.46,0,0,0,4.58,16a.51.51,0,0,1-.51.46.5.5,0,0,1-.5-.54A6.46,6.46,0,0,1,7.9,10.38a3.75,3.75,0,1,1,4.24,0,6.25,6.25,0,0,1,2.46,1.54,6.41,6.41,0,0,1,1.88,4A.51.51,0,0,1,16,16.5Z"/></g></g></svg>