<svg xmlns="http://www.w3.org/2000/svg" viewBox="0 0 19.37 23.62"><defs><style>.cls-1{fill:#f4783d;}</style></defs><title>icon_list</title><g id="Layer_2" data-name="Layer 2"><g id="Layer_1-2" data-name="Layer 1"><path class="cls-1" d="M19.37,6V21.35a2.27,2.27,0,0,1-2.27,2.27H6.73a2.27,2.27,0,0,1-2.27-2.27v-10a6.4,6.4,0,0,0,1,.08,5.53,5.53,0,0,0,.71,0v9.93a.58.58,0,0,0,.57.57H17.1a.58.58,0,0,0,.57-.57V6a.58.58,0,0,0-.57-.57H11.48a6.35,6.35,0,0,0-.25-1.7H17.1A2.27,2.27,0,0,1,19.37,6Zm-14,4.71a5.36,5.36,0,1,1,5.36-5.36,5.37,5.37,0,0,1-5.36,5.36Zm0-1.14A4.22,4.22,0,1,0,1.14,5.36,4.22,4.22,0,0,0,5.36,9.58ZM8.57,5.93a.57.57,0,0,0,.57-.57.56.56,0,0,0-.57-.57H5.93V2.56A.58.58,0,0,0,5.36,2a.57.57,0,0,0-.57.57v2.8a.57.57,0,0,0,.57.57Zm6.56,4.6H9a.57.57,0,0,0,0,1.14h6.16a.57.57,0,0,0,0-1.14Zm0,3.45H9a.57.57,0,0,0,0,1.13h6.16a.57.57,0,1,0,0-1.13Zm0,3.59H9A.57.57,0,0,0,9,18.7h6.16a.57.57,0,1,0,0-1.13Z"/></g></g></svg>