<svg xmlns="http://www.w3.org/2000/svg" xmlns:xlink="http://www.w3.org/1999/xlink" viewBox="0 0 63.8 65.31"><defs><style>.cls-1{fill:none;}.cls-2{clip-path:url(#clip-path);}.cls-3{fill:url(#linear-gradient);}.cls-4{fill:url(#linear-gradient-2);}</style><clipPath id="clip-path" transform="translate(13.43 12.45)"><path class="cls-1" d="M15.36,8.1A2.58,2.58,0,1,1,19,8.1a2.61,2.61,0,0,1-1.83.75,2.57,2.57,0,0,1-1.82-.75M5.35,5A17.07,17.07,0,0,0,.83,13.07l1.19,3,10.8,14.29,3.85,8.44v1.61l2.49-1L29.45,29.09A17,17,0,0,0,5.35,5"/></clipPath><linearGradient id="linear-gradient" x1="-2761.94" y1="659.89" x2="-2761.66" y2="659.89" gradientTransform="matrix(-170.66, 0, 0, 170.66, -471298.99, -112594.53)" gradientUnits="userSpaceOnUse"><stop offset="0" stop-color="#eeeded"/><stop offset="0.51" stop-color="#919496"/><stop offset="1" stop-color="#ced0d1"/></linearGradient><linearGradient id="linear-gradient-2" y1="20.78" x2="32.51" y2="20.78" gradientUnits="userSpaceOnUse"><stop offset="0" stop-color="#8cc752"/><stop offset="1" stop-color="#c5da47"/></linearGradient></defs><title>pin</title><g id="Layer_2" data-name="Layer 2"><g id="Layer_1-2" data-name="Layer 1"><g class="cls-2"><rect class="cls-3" x="-6.94" y="-3.81" width="50.82" height="48.04" transform="translate(6.17 42.01) rotate(-67.55)"/></g><path class="cls-4" d="M27.75,5.93a16.25,16.25,0,0,0-23,23l11.5,11.5L27.75,28.92a16.25,16.25,0,0,0,0-23m-13.45,3a2.46,2.46,0,1,1,3.48,0,2.46,2.46,0,0,1-3.48,0" transform="translate(13.43 12.45)"/></g></g></svg>